<svg width="429" height="201" viewBox="0 0 429 201" fill="none" xmlns="http://www.w3.org/2000/svg">
<path d="M354.275 88.8477C349.967 92.3549 345.547 95.8174 342.313 100.358C336.836 108.047 329.591 113.881 322.5 119.866C316.051 125.308 308.512 128.496 300.102 129.531C297.574 129.843 294.956 131.203 293.188 127.722C292.37 126.114 290.446 127.082 289.11 127.706C285.481 129.399 281.896 131.188 278.364 132.905C277.401 132.043 277.778 131.114 277.772 130.258C277.735 124.942 275.88 123.826 271.154 126.365C269.706 127.142 268.353 128.102 266.984 129.021C263.892 131.096 260.816 133.196 256.934 135.828C257.417 134.135 257.588 133.579 257.733 133.016C258.291 130.842 260.563 128.435 257.779 126.543C255.269 124.837 253.698 127.556 252.025 128.757C247.365 132.105 243.173 136.127 236.757 139.325C238.383 136.43 239.483 134.695 240.363 132.856C241.843 129.763 245.9 126.536 243.034 123.274C240.385 120.258 236.304 123.074 232.955 124.07C228.005 125.541 223.751 128.642 218.109 131.126C222.464 121.837 226.679 113.798 232.96 106.997C234.17 105.686 235.615 104.114 233.431 102.468C231.583 101.076 230.509 102.533 229.344 103.802C222.857 110.872 216.424 117.998 209.768 124.907C204.982 129.876 199.669 134.281 193.952 138.187C191.482 139.874 190.374 139.376 189.803 136.406C189.008 132.262 187.563 131.692 184.025 134.026C180.774 136.171 177.709 138.593 174.502 140.807C172.804 141.98 170.969 144.211 169.069 143.428C166.92 142.541 168.124 139.731 167.934 137.756C167.571 134.002 165.825 132.988 162.576 134.988C160.045 136.544 157.728 138.446 155.316 140.196C151.932 142.346 148.547 144.495 144.851 146.843C144.479 143.098 146.052 140.308 147.483 137.632C150.238 132.478 153.379 127.534 156.263 122.448C159.065 117.503 162.384 112.767 163.621 107.103C164.421 103.441 162.605 101.926 159.097 103.22C157.284 103.889 155.564 104.868 153.901 105.869C145.512 110.918 137.843 116.911 130.785 123.694C124.676 129.565 118.544 135.414 112.135 141.547C114.23 136.831 116.385 132.44 118.155 127.899C122.47 116.828 128.355 106.533 133.595 95.9175C134.499 94.0849 136.553 91.7737 134.591 89.7883C132.501 87.6729 130.381 90.0525 128.538 90.9799C121.16 94.6922 114.115 99.0026 107.308 103.677C81.0113 121.734 57.1907 142.773 34.0315 164.609C32.8728 165.702 31.9919 167.67 29.9561 167.119C40.0786 152.714 50.1539 138.357 60.249 124.012C73.8881 104.633 89.2764 86.5079 101.781 66.3164C107.239 57.5024 112.194 48.4161 115.05 38.3645C119.043 24.3152 115.52 13.6052 104.691 6.26134C99.0421 2.42965 92.7892 0.782973 86.0427 0.527486C74.46 0.08862 63.875 3.81587 53.51 8.31643C47.8781 10.7619 42.286 13.3764 37.6468 17.5786C36.6734 18.4601 35.874 19.5759 36.7094 20.6849C37.8296 22.1718 38.8515 20.6743 39.6665 20.0315C45.0385 15.7933 51.3269 13.2366 57.4828 10.5363C66.4709 6.59267 75.8238 3.95077 85.8177 4.37348C106.88 5.26613 117.52 20.7178 110.749 40.5532C106.637 52.5928 100.004 63.2822 93.0702 73.8045C81.585 91.231 68.1747 107.259 56.2433 124.364C39.0803 148.969 22.2834 173.853 1.79715 195.93C0.754691 197.052 -0.500353 198.294 0.85603 199.784C2.20806 201.268 3.64028 200.089 4.85306 199.249C5.70718 198.657 6.50844 197.932 7.17171 197.132C13.5017 189.494 20.4894 182.483 27.5355 175.518C54.361 148.999 82.3465 123.868 113.954 103.061C118.74 99.9101 123.644 96.9195 129.816 94.3765C128.911 96.4496 128.411 97.663 127.859 98.8528C124.833 105.38 120.91 111.441 118.219 118.157C112.976 131.242 107.101 144.047 100.175 156.345C99.3231 157.861 97.6857 159.576 100.011 160.95C102.166 162.224 103.108 160.257 104.175 158.766C115.151 143.416 128.271 130.074 142.701 117.999C147.536 113.952 152.617 110.173 159.353 107.377C157.132 113.134 154.664 117.559 151.988 121.904C146.481 130.845 141.032 139.83 138.462 150.181C138.068 151.768 137.412 153.392 139.009 154.749C140.744 156.225 142.052 155.027 143.384 154.05C147.974 150.686 152.558 147.311 157.144 143.941C158.878 142.817 160.611 141.694 162.387 140.542C165.596 150.013 168.783 150.899 176.83 144.722C178.849 143.172 180.846 141.591 182.839 140.006C184.197 138.926 185.07 138.454 186.182 140.61C188.668 145.435 190.914 145.984 195.45 142.917C201.308 138.955 206.224 133.856 211.336 129.01C212.608 127.804 213.849 126.565 215.104 125.341C214.068 129.322 212.608 132.749 211.093 136.151C210.32 137.887 210.492 139.474 212.067 140.524C213.542 141.507 214.864 140.733 216.096 139.657C218.014 137.985 219.972 136.343 222.022 134.837C226.681 131.417 231.705 128.742 237.951 127.053C235.875 131.282 234.03 134.693 232.518 138.248C231.575 140.464 230.888 143.216 232.935 145.006C235.245 147.027 237.436 144.967 239.365 143.647C243.325 140.938 247.198 138.102 251.542 135.008C251.442 136.698 251.317 137.584 251.354 138.464C251.423 140.114 251.44 141.811 253.309 142.658C255.132 143.486 256.512 142.531 257.832 141.528C259.263 140.441 260.547 139.156 262.001 138.104C265.31 135.712 268.223 132.69 272.259 131.18C273.335 139.325 275.847 140.449 282.543 136.072C283.296 135.58 284.029 135.054 284.799 134.591C287.179 133.161 289.448 131.213 291.933 134.697C292.784 135.89 294.647 135.789 296.179 135.569C308.03 133.869 318.839 129.917 327.444 121.158C329.196 119.374 330.917 117.523 333.761 116.034C333.223 119.657 332.742 122.704 332.324 125.758C331.951 128.489 332.183 131.166 333.509 133.629C334.13 134.784 335.214 135.389 336.534 134.877C337.765 134.399 337.635 133.395 337.419 132.257C335.234 120.795 338.804 111.017 346.486 102.61C349.819 98.9616 353.486 95.6141 357.064 92.1946C358.146 91.1602 359.816 90.3396 358.275 88.6345C357.018 87.2433 355.558 87.804 354.275 88.8477Z" fill="black"/>
<path d="M392.751 118.595C387.69 123.845 382.911 129.465 375.729 132.224C374.921 125.359 382.261 116.612 391.642 113.075C393.129 113.766 390.066 115.948 392.711 116.464C393.978 116.712 393.399 117.923 392.751 118.595ZM428.481 121.75C427.608 119.65 425.666 121.039 424.159 121.537C422.769 121.999 421.25 122.932 420.031 121.4C418.707 119.735 419.878 118.248 420.808 116.924C422.789 114.108 424.913 111.392 426.918 108.592C427.749 107.433 428.24 106.007 426.957 104.951C425.513 103.764 424.109 104.423 423.108 105.788C421.427 108.08 419.819 110.424 418.193 112.756C413.437 119.579 406.732 123.673 398.966 126.607C399.849 123.131 401.401 120.128 402.58 116.985C403.412 114.77 405.816 112.063 403.125 110.078C400.291 107.987 399.472 112.24 396.934 113.057C396.069 109.289 394.252 107.095 390.227 108.2C382.779 110.246 371.824 122.975 370.999 130.558C370.744 132.903 371.032 135.164 373.177 136.563C375.243 137.909 377.16 136.909 379.048 135.828C384.809 132.527 389.751 128.237 394.492 122.529C394.302 126.109 393.077 129.263 396.014 131.061C399.004 132.891 401.848 131.178 404.433 129.684C407.279 128.037 409.937 126.067 412.729 124.323C413.614 123.771 414.539 122.45 415.72 124.11C418.514 128.036 422.035 126.56 425.411 125.201C426.935 124.587 429.461 124.106 428.481 121.75Z" fill="black"/>
</svg>
